<svg width="10" height="11" viewBox="0 0 10 11" fill="none" xmlns="http://www.w3.org/2000/svg">
<path d="M10 7.9729C10 8.33875 9.70887 8.61653 9.38389 8.61653C9.05213 8.61653 8.77454 8.31843 8.77454 8V5.49322L8.89641 2.32927L7.77928 3.59621L1.0562 10.3171C0.934326 10.4458 0.785376 10.5 0.629655 10.5C0.291131 10.5 0 10.1951 0 9.86992C0 9.72087 0.0677048 9.56504 0.189573 9.44309L6.89912 2.71545L8.15843 1.61111L4.85443 1.71951H2.49831C2.18009 1.71951 1.88896 1.44173 1.88896 1.11653C1.88896 0.791328 2.14624 0.5 2.52539 0.5H9.33649C9.74272 0.5 9.99323 0.771003 9.99323 1.15718L10 7.9729Z" fill="white"/>
</svg>
