<svg width="20" height="20" viewBox="0 0 20 20" fill="none" xmlns="http://www.w3.org/2000/svg">
<path d="M9.99984 9.58334C9.4473 9.58334 8.9174 9.36384 8.5267 8.97314C8.136 8.58244 7.9165 8.05254 7.9165 7.5C7.9165 6.94747 8.136 6.41757 8.5267 6.02687C8.9174 5.63617 9.4473 5.41667 9.99984 5.41667C10.5524 5.41667 11.0823 5.63617 11.473 6.02687C11.8637 6.41757 12.0832 6.94747 12.0832 7.5C12.0832 7.77359 12.0293 8.0445 11.9246 8.29726C11.8199 8.55002 11.6664 8.77969 11.473 8.97314C11.2795 9.1666 11.0499 9.32006 10.7971 9.42475C10.5443 9.52945 10.2734 9.58334 9.99984 9.58334ZM9.99984 1.66667C8.45274 1.66667 6.96901 2.28125 5.87505 3.37522C4.78109 4.46918 4.1665 5.95291 4.1665 7.5C4.1665 11.875 9.99984 18.3333 9.99984 18.3333C9.99984 18.3333 15.8332 11.875 15.8332 7.5C15.8332 5.95291 15.2186 4.46918 14.1246 3.37522C13.0307 2.28125 11.5469 1.66667 9.99984 1.66667Z" fill="#4A4A4A"/>
</svg>
