<svg width="24" height="25" viewBox="0 0 24 25" fill="none" xmlns="http://www.w3.org/2000/svg">
<g opacity="0.12">
<path d="M18.5 14C20.433 14 22 12.433 22 10.5C22 8.567 20.433 7 18.5 7V14Z" fill="#EDEFF3"/>
<path d="M9.99999 6H6.5C4.01472 6 2 8.01472 2 10.5C2 12.9853 4.01472 15 6.5 15H10L9.99999 6Z" fill="#EDEFF3"/>
</g>
<path d="M4 14.5L5.57465 20.7986C5.61893 20.9758 5.64107 21.0643 5.66727 21.1417C5.92317 21.8972 6.60352 22.4284 7.39852 22.4934C7.4799 22.5 7.5712 22.5 7.75379 22.5C7.98244 22.5 8.09677 22.5 8.19308 22.4907C9.145 22.3984 9.89834 21.645 9.99066 20.6931C10 20.5968 10 20.4825 10 20.2538V6.00003M18.5 14C20.433 14 22 12.433 22 10.5C22 8.56704 20.433 7.00003 18.5 7.00003M10.25 6.00003H6.5C4.01472 6.00003 2 8.01475 2 10.5C2 12.9853 4.01472 15 6.5 15H10.25C12.0164 15 14.1772 15.9469 15.8443 16.8557C16.8168 17.3858 17.3031 17.6509 17.6216 17.6119C17.9169 17.5757 18.1402 17.4431 18.3133 17.2011C18.5 16.9402 18.5 16.418 18.5 15.3737V5.62632C18.5 4.58203 18.5 4.05988 18.3133 3.79892C18.1402 3.55694 17.9169 3.42433 17.6216 3.38816C17.3031 3.34916 16.8168 3.61423 15.8443 4.14439C14.1772 5.05315 12.0164 6.00003 10.25 6.00003Z" stroke="#4A4A4A" stroke-width="2" stroke-linecap="round" stroke-linejoin="round"/>
</svg>
