<svg width="24" height="25" viewBox="0 0 24 25" fill="none" xmlns="http://www.w3.org/2000/svg">
<path d="M12 2.5V9.5L14 7.5" stroke="#4A4A4A" stroke-width="1.5" stroke-linecap="round" stroke-linejoin="round"/>
<path d="M12 9.5L10 7.5" stroke="#4A4A4A" stroke-width="1.5" stroke-linecap="round" stroke-linejoin="round"/>
<path d="M1.97998 13.5H6.38998C6.76998 13.5 7.10998 13.71 7.27998 14.05L8.44998 16.39C8.78998 17.07 9.47998 17.5 10.24 17.5H13.77C14.53 17.5 15.22 17.07 15.56 16.39L16.73 14.05C16.9 13.71 17.25 13.5 17.62 13.5H21.98" stroke="#4A4A4A" stroke-width="1.5" stroke-linecap="round" stroke-linejoin="round"/>
<path d="M7 4.63C3.46 5.15 2 7.23 2 11.5V15.5C2 20.5 4 22.5 9 22.5H15C20 22.5 22 20.5 22 15.5V11.5C22 7.23 20.54 5.15 17 4.63" stroke="#4A4A4A" stroke-width="1.5" stroke-linecap="round" stroke-linejoin="round"/>
</svg>
