<svg width="53" height="52" viewBox="0 0 53 52" fill="none" xmlns="http://www.w3.org/2000/svg">
<path d="M48.3578 21.625C48.3127 21.3779 48.1824 21.1545 47.9896 20.9936C47.7969 20.8328 47.5539 20.7448 47.303 20.7449H27.1106C26.827 20.7449 26.555 20.8574 26.3541 21.0577C26.1532 21.2581 26.0397 21.53 26.0386 21.8139V30.1192C26.0386 30.4038 26.1515 30.6768 26.3526 30.8781C26.5536 31.0794 26.8263 31.1925 27.1106 31.1925H37.2625C36.6271 33.0403 35.4011 34.627 33.7742 35.7068C31.7868 36.9765 29.4675 37.6265 27.1106 37.5744C24.6598 37.551 22.2789 36.7539 20.3071 35.2966C18.3353 33.8392 16.8731 31.796 16.1289 29.458V29.4537C15.3056 27.0319 15.3056 24.4053 16.1289 21.9835V21.9792C16.8729 19.6419 18.3344 17.5991 20.3054 16.1419C22.2763 14.6846 24.6563 13.887 27.1063 13.8628C29.8787 13.8164 32.5583 14.8625 34.5675 16.7758C34.7698 16.9704 35.0404 17.0779 35.321 17.0751C35.6016 17.0723 35.8699 16.9594 36.0683 16.7607L42.2174 10.6021C42.3193 10.5001 42.3997 10.3786 42.4537 10.2448C42.5077 10.111 42.5342 9.96765 42.5316 9.82336C42.5289 9.67908 42.4973 9.53681 42.4385 9.40505C42.3798 9.27329 42.2951 9.15475 42.1895 9.05651C38.1063 5.2283 32.7064 3.12322 27.1127 3.17906C22.9368 3.16625 18.8404 4.32219 15.2857 6.51645C11.731 8.7107 8.85959 11.8559 6.99541 15.5973C5.42065 18.7382 4.60059 22.2041 4.60059 25.7186C4.60059 29.2331 5.42065 32.6989 6.99541 35.8399C8.85959 39.5812 11.731 42.7265 15.2857 44.9207C18.8404 47.115 22.9368 48.2709 27.1127 48.2581C32.5972 48.4026 37.9294 46.4428 42.018 42.7799L42.0287 42.7757C44.243 40.6362 45.9862 38.0571 47.1467 35.2036C48.3071 32.3502 48.8591 29.2854 48.7673 26.2059C48.7673 24.6689 48.628 23.1362 48.3578 21.625ZM27.1127 5.32568C31.7805 5.27652 36.3128 6.89542 39.8954 9.89155L35.2643 14.5283C32.9563 12.6705 30.0738 11.6761 27.1127 11.7162C24.4664 11.735 21.8819 12.5185 19.6695 13.9723C17.4571 15.4262 15.711 17.4887 14.641 19.912L9.32381 15.7819C11.0823 12.6042 13.6609 9.95766 16.7901 8.11872C19.9193 6.27977 23.4843 5.31376 27.1127 5.32568ZM6.74456 25.7207C6.73771 22.9839 7.28699 20.2743 8.359 17.7568L13.8756 22.0371C13.2061 24.4464 13.2061 26.9929 13.8756 29.4022L8.359 33.6826C7.29749 31.1617 6.74794 28.4544 6.74241 25.7186M27.1106 46.1115C23.4816 46.1236 19.916 45.1596 16.7863 43.3202C13.6567 41.4809 11.0779 38.8337 9.31952 35.6553L14.6388 31.5252C15.7089 33.9485 17.455 36.011 19.6673 37.4649C21.8797 38.9187 24.4643 39.7021 27.1106 39.721C29.6263 39.759 32.1075 39.1319 34.3038 37.9028L34.5396 38.0853L39.6059 42.0265C36.0298 44.7785 31.6197 46.2202 27.1106 46.1115ZM41.2225 40.5646L36.124 36.602C37.9942 34.9728 39.2559 32.7558 39.7024 30.3145C39.7307 30.1599 39.7247 30.001 39.6848 29.849C39.645 29.697 39.5723 29.5555 39.4719 29.4347C39.3715 29.3139 39.2458 29.2167 39.1037 29.1499C38.9617 29.083 38.8067 29.0483 38.6497 29.048H28.1826V22.8893H46.3896C46.544 23.9898 46.6212 25.0954 46.6212 26.2059C46.776 31.5171 44.8367 36.6737 41.2225 40.5646Z" fill="black"/>
</svg>
