<svg width="24" height="25" viewBox="0 0 24 25" fill="none" xmlns="http://www.w3.org/2000/svg">
<path d="M11.4 23.25H7.6C3.21 23.25 1.25 21.29 1.25 16.9V13.1C1.25 8.71 3.21 6.75 7.6 6.75H10.6C11.01 6.75 11.35 7.09 11.35 7.5C11.35 7.91 11.01 8.25 10.6 8.25H7.6C4.02 8.25 2.75 9.52 2.75 13.1V16.9C2.75 20.48 4.02 21.75 7.6 21.75H11.4C14.98 21.75 16.25 20.48 16.25 16.9V13.9C16.25 13.49 16.59 13.15 17 13.15C17.41 13.15 17.75 13.49 17.75 13.9V16.9C17.75 21.29 15.79 23.25 11.4 23.25Z" fill="#4A4A4A"/>
<path d="M17.0001 14.65H13.8001C10.9901 14.65 9.8501 13.51 9.8501 10.7V7.5C9.8501 7.2 10.0301 6.92 10.3101 6.81C10.5901 6.69 10.9101 6.76 11.1301 6.97L17.5301 13.37C17.7401 13.58 17.8101 13.91 17.6901 14.19C17.5801 14.47 17.3001 14.65 17.0001 14.65ZM11.3501 9.31V10.7C11.3501 12.69 11.8101 13.15 13.8001 13.15H15.1901L11.3501 9.31Z" fill="#4A4A4A"/>
<path d="M15.6001 3.25H11.6001C11.1901 3.25 10.8501 2.91 10.8501 2.5C10.8501 2.09 11.1901 1.75 11.6001 1.75H15.6001C16.0101 1.75 16.3501 2.09 16.3501 2.5C16.3501 2.91 16.0101 3.25 15.6001 3.25Z" fill="#4A4A4A"/>
<path d="M7 6.25C6.59 6.25 6.25 5.91 6.25 5.5C6.25 3.43 7.93 1.75 10 1.75H12.62C13.03 1.75 13.37 2.09 13.37 2.5C13.37 2.91 13.03 3.25 12.62 3.25H10C8.76 3.25 7.75 4.26 7.75 5.5C7.75 5.91 7.41 6.25 7 6.25Z" fill="#4A4A4A"/>
<path d="M19.1899 18.25C18.7799 18.25 18.4399 17.91 18.4399 17.5C18.4399 17.09 18.7799 16.75 19.1899 16.75C20.3299 16.75 21.2499 15.82 21.2499 14.69V8.5C21.2499 8.09 21.5899 7.75 21.9999 7.75C22.4099 7.75 22.7499 8.09 22.7499 8.5V14.69C22.7499 16.65 21.1499 18.25 19.1899 18.25Z" fill="#4A4A4A"/>
<path d="M22 9.25H19C16.34 9.25 15.25 8.16 15.25 5.5V2.5C15.25 2.2 15.43 1.92 15.71 1.81C15.99 1.69 16.31 1.76 16.53 1.97L22.53 7.97C22.74 8.18 22.81 8.51 22.69 8.79C22.58 9.07 22.3 9.25 22 9.25ZM16.75 4.31V5.5C16.75 7.33 17.17 7.75 19 7.75H20.19L16.75 4.31Z" fill="#4A4A4A"/>
</svg>
